Coordinates
version=1
nRows=27
nColumns=12
inDegrees=yes

Units are S.I. units (second, meters, Newtons, ...)
Angles are in degrees

endheader
time	SC_y	SC_z	SC_x	AC_y	AC_z	AC_x	GH_y	GH_z	GH_yy	EL_x	PS_y
       0.0              -51.02          29.94          69.07          56.87          3.903          11.08          171.5          34.33         -102.3          14.65          77.44
   0.03897              -51.02          29.94          69.07          56.87          3.901          11.08          171.5          34.33         -102.2          14.65          77.44
   0.07794              -51.02          29.93          69.07          56.88          3.899          11.08          171.5          34.34         -102.2          14.66          77.43
    0.1169              -51.02          29.93          69.08          56.88          3.897          11.08          171.5          34.34         -102.2          14.66          77.42
    0.1559              -51.01          29.92          69.08          56.88          3.895          11.08          171.5          34.35         -102.1          14.67          77.41
    0.1948              -51.01          29.92          69.08          56.88          3.893          11.08          171.5          34.36         -102.1          14.68           77.4
    0.2338              -51.01          29.91          69.09          56.88           3.89          11.08          171.5          34.36         -102.0          14.68          77.39
    0.2728               -51.0          29.91          69.09          56.88          3.888          11.08          171.5          34.37         -102.0          14.69          77.38
    0.3117               -51.0           29.9          69.09          56.89          3.885          11.08          171.5          34.38         -101.9           14.7          77.37
    0.3507               -51.0           29.9           69.1          56.89          3.882          11.08          171.5          34.39         -101.9           14.7          77.36
    0.3897              -50.99          29.89           69.1          56.89          3.879          11.08          171.5          34.39         -101.8          14.71          77.35
    0.4286              -50.99          29.88           69.1           56.9          3.875          11.09          171.5           34.4         -101.8          14.72          77.33
    0.4676              -50.98          29.88          69.11           56.9          3.872          11.09          171.4          34.41         -101.7          14.73          77.32
    0.5066              -50.98          29.87          69.11           56.9          3.868          11.09          171.4          34.43         -101.6          14.74           77.3
    0.5456              -50.97          29.86          69.12          56.91          3.863          11.09          171.4          34.44         -101.5          14.75          77.29
    0.5845              -50.97          29.85          69.12          56.91          3.859          11.09          171.4          34.45         -101.4          14.77          77.27
    0.6235              -50.96          29.84          69.13          56.91          3.854          11.09          171.4          34.46         -101.4          14.78          77.25
    0.6625              -50.95          29.83          69.14          56.92          3.848          11.09          171.4          34.48         -101.3           14.8          77.23
    0.7014              -50.94          29.81          69.14          56.92          3.842           11.1          171.4           34.5         -101.1          14.81           77.2
    0.7404              -50.93           29.8          69.15          56.93          3.835           11.1          171.3          34.52         -101.0          14.83          77.17
    0.7794              -50.92          29.79          69.16          56.94          3.828           11.1          171.3          34.54         -100.9          14.85          77.15
    0.8183              -50.91          29.77          69.17          56.94           3.82           11.1          171.3          34.56         -100.7          14.87          77.11
    0.8573               -50.9          29.75          69.18          56.95          3.811          11.11          171.3          34.58         -100.6           14.9          77.08
    0.8963              -50.89          29.73          69.19          56.96          3.801          11.11          171.2          34.61         -100.4          14.92          77.04
    0.9352              -50.87          29.71          69.21          56.97           3.79          11.11          171.2          34.64         -100.2          14.95           77.0
    0.9742              -50.86          29.68          69.22          56.98          3.778          11.12          171.1          34.67         -99.98          14.98          76.95
     1.013              -50.84          29.65          69.24          56.99          3.764          11.12          171.1          34.71         -99.73          15.02          76.89
